<svg width="57" height="100" viewBox="0 0 57 100" fill="none" xmlns="http://www.w3.org/2000/svg">
<path d="M1.33475 53.1153L49.2944 98.8116C50.0946 99.5744 51.1578 100 52.2633 100C53.3689 100 54.4321 99.5744 55.2323 98.8116L55.2839 98.76C55.6732 98.3901 55.9832 97.945 56.195 97.4516C56.4068 96.9582 56.5161 96.4269 56.5161 95.89C56.5161 95.353 56.4068 94.8217 56.195 94.3283C55.9832 93.8349 55.6732 93.3898 55.2839 93.0199L10.1212 49.9914L55.2839 6.98006C55.6732 6.61024 55.9832 6.1651 56.195 5.67171C56.4068 5.17832 56.5161 4.64699 56.5161 4.11005C56.5161 3.57312 56.4068 3.04179 56.195 2.5484C55.9832 2.05501 55.6732 1.60987 55.2839 1.24005L55.2323 1.18842C54.4321 0.425565 53.3689 0 52.2633 0C51.1578 0 50.0946 0.425565 49.2944 1.18842L1.33475 46.8847C0.912963 47.2866 0.577175 47.7699 0.347741 48.3054C0.118306 48.8409 0 49.4174 0 50C0 50.5826 0.118306 51.1591 0.347741 51.6946C0.577175 52.2301 0.912963 52.7134 1.33475 53.1153Z" fill="white"/>
</svg>
