<svg width="1024" height="1024" viewBox="0 0 1024 1024" fill="none" xmlns="http://www.w3.org/2000/svg">
<circle cx="512" cy="512" r="512" fill="#091622"/>
<path d="M459.357 267.814C457.562 265.928 356.65 226.283 269.935 295.873C190.226 359.857 166.656 474.513 177.722 476.75C191.267 479.479 225.574 423.754 294.709 390.879C319.233 379.223 359.462 388.006 359.462 388.006L459.357 267.814Z" fill="#2162B5"/>
<path opacity="0.1" d="M359.509 387.981C347.582 385.625 335.405 384.613 323.223 384.966C337.378 353.074 363.805 293.582 380.966 255.035C425.315 253.46 458.443 266.767 459.474 267.739L359.509 387.981Z" fill="black"/>
<path d="M630.555 445.052C632.373 446.914 665.954 546.501 587.096 624.229C514.613 695.708 393.734 709.603 392.245 698.847C390.431 685.677 450.933 657.048 490.285 593.351C504.225 570.765 498.173 531.583 498.173 531.583L630.555 445.052Z" fill="#2162B5"/>
<path opacity="0.1" d="M637.788 521.689L498.435 567.345C499.797 555.449 499.677 543.445 498.077 531.587L630.46 445.056C631.591 446.116 643.13 479.111 637.788 521.689Z" fill="black"/>
<path d="M405.636 578.584L304.134 473.501C304.134 473.501 348.895 341.579 464.724 249.168C522.618 203.057 591.245 167.43 653.24 143.127C738.632 109.462 810.799 97.6578 822.593 109.807C834.388 121.956 816.52 190.225 775.255 269.454C745.285 326.768 703.063 389.874 650.802 441.818C546.043 545.808 405.636 578.584 405.636 578.584Z" fill="#8096B3"/>
<path d="M632.777 395.698C620.247 406.861 604.562 414.218 587.706 416.839C570.851 419.461 553.582 417.229 538.085 410.425C522.587 403.621 509.558 392.552 500.645 378.618C491.733 364.684 487.337 348.51 488.014 332.144C488.691 315.778 494.411 299.955 504.45 286.676C514.489 273.398 528.396 263.261 544.411 257.547C560.427 251.834 577.831 250.801 594.421 254.58C611.012 258.358 626.044 266.778 637.615 278.775C653.11 294.847 661.303 316.187 660.396 338.108C659.489 360.03 649.556 380.742 632.777 395.698Z" fill="#7B95B7"/>
<path d="M637.151 387.804C624.618 398.957 608.933 406.305 592.081 408.92C575.229 411.534 557.965 409.297 542.474 402.491C526.982 395.686 513.958 384.617 505.049 370.686C496.14 356.754 491.746 340.585 492.422 324.223C493.098 307.861 498.815 292.042 508.849 278.764C518.882 265.487 532.783 255.349 548.792 249.632C564.801 243.915 582.2 242.875 598.788 246.645C615.377 250.415 630.41 258.825 641.986 270.811C657.504 286.886 665.711 308.24 664.804 330.179C663.898 352.118 653.951 372.845 637.151 387.804Z" fill="#2162B5"/>
<path d="M619.237 369.197C610.553 376.947 599.678 382.058 587.989 383.886C576.299 385.713 564.32 384.174 553.568 379.463C542.815 374.753 533.771 367.082 527.582 357.421C521.393 347.761 518.335 336.545 518.797 325.194C519.258 313.842 523.218 302.864 530.174 293.65C537.131 284.435 546.772 277.398 557.878 273.428C568.983 269.459 581.054 268.736 592.563 271.35C604.072 273.964 614.502 279.799 622.533 288.115C633.287 299.253 638.981 314.047 638.363 329.249C637.745 344.451 630.866 358.819 619.237 369.197Z" fill="#B2BCC9"/>
<path d="M619.261 369.196C613.825 374.054 607.498 377.903 600.603 380.545L552.328 378.918C545.668 375.821 539.675 371.554 534.658 366.336C530.976 362.55 527.859 358.291 525.396 353.682L629.429 357.183C626.626 361.612 623.205 365.655 619.261 369.196Z" fill="#C5D7ED"/>
<path d="M628.004 294.648L531.985 291.416C533.817 289.205 535.82 287.13 537.976 285.207C549.619 274.84 565.058 269.318 580.899 269.855C596.741 270.393 611.689 276.945 622.458 288.072C624.479 290.125 626.333 292.323 628.004 294.648Z" fill="#C5D7ED"/>
<path d="M635.444 345.007L520.548 341.109C520.094 339.442 519.737 337.751 519.48 336.046L636.889 340.086C636.501 341.676 635.997 343.34 635.444 345.007Z" fill="#C5D7ED"/>
<path d="M775.255 269.454L653.237 143.058C738.632 109.462 810.799 97.6578 822.593 109.807C834.387 121.956 816.616 190.221 775.255 269.454Z" fill="#2162B5"/>
<path d="M687.89 152.713C687.16 153.366 686.245 153.797 685.262 153.952C684.278 154.106 683.27 153.978 682.365 153.582C681.46 153.186 680.699 152.541 680.177 151.728C679.656 150.916 679.399 149.972 679.437 149.016C679.476 148.061 679.809 147.137 680.395 146.362C680.981 145.587 681.792 144.995 682.727 144.662C683.662 144.328 684.677 144.268 685.646 144.489C686.614 144.709 687.491 145.201 688.166 145.902C689.068 146.838 689.545 148.08 689.493 149.357C689.442 150.633 688.865 151.84 687.89 152.713Z" fill="#B2BCC9"/>
<path d="M709.59 175.198C709.107 175.644 708.537 175.993 707.913 176.225C707.288 176.457 706.622 176.568 705.954 176.55C705.285 176.533 704.627 176.388 704.019 176.123C703.411 175.859 702.864 175.48 702.41 175.01C701.957 174.54 701.606 173.987 701.378 173.385C701.151 172.782 701.05 172.141 701.084 171.5C701.117 170.859 701.284 170.23 701.573 169.651C701.862 169.071 702.269 168.552 702.769 168.124C703.755 167.281 705.044 166.842 706.361 166.9C707.677 166.959 708.915 167.51 709.809 168.437C710.702 169.364 711.18 170.591 711.139 171.855C711.098 173.12 710.542 174.32 709.59 175.198Z" fill="#B2BCC9"/>
<path d="M731.29 197.66C730.552 198.292 729.637 198.702 728.66 198.839C727.683 198.977 726.686 198.835 725.794 198.432C724.902 198.03 724.154 197.384 723.643 196.575C723.133 195.766 722.882 194.83 722.922 193.883C722.962 192.937 723.291 192.021 723.869 191.251C724.446 190.48 725.247 189.889 726.17 189.551C727.093 189.213 728.099 189.142 729.062 189.348C730.025 189.555 730.902 190.028 731.585 190.71C732.055 191.176 732.423 191.729 732.664 192.336C732.905 192.943 733.015 193.59 732.988 194.24C732.96 194.89 732.796 195.528 732.504 196.116C732.212 196.704 731.799 197.229 731.29 197.66Z" fill="#B2BCC9"/>
<path d="M753.015 220.145C752.279 220.779 751.366 221.192 750.389 221.333C749.412 221.473 748.415 221.335 747.521 220.935C746.628 220.536 745.877 219.892 745.364 219.085C744.85 218.277 744.596 217.342 744.632 216.395C744.669 215.448 744.995 214.532 745.57 213.759C746.146 212.987 746.944 212.394 747.866 212.052C748.789 211.711 749.795 211.638 750.758 211.841C751.722 212.044 752.601 212.515 753.285 213.195C753.755 213.661 754.121 214.213 754.362 214.819C754.603 215.425 754.714 216.071 754.689 216.72C754.664 217.368 754.503 218.006 754.215 218.595C753.927 219.183 753.519 219.71 753.015 220.145Z" fill="#B2BCC9"/>
<path d="M774.836 242.625C774.105 243.275 773.191 243.703 772.208 243.855C771.226 244.008 770.219 243.877 769.316 243.481C768.413 243.085 767.653 242.44 767.133 241.628C766.613 240.816 766.356 239.874 766.395 238.92C766.433 237.966 766.765 237.043 767.349 236.269C767.933 235.494 768.742 234.902 769.675 234.567C770.608 234.232 771.622 234.17 772.589 234.387C773.557 234.605 774.434 235.094 775.111 235.791C775.561 236.255 775.912 236.8 776.141 237.395C776.371 237.99 776.477 238.623 776.451 239.257C776.425 239.892 776.27 240.516 775.992 241.094C775.715 241.672 775.322 242.192 774.836 242.625Z" fill="#B2BCC9"/>
<path d="M331.803 469.706C330.818 470.549 329.528 470.989 328.212 470.93C326.895 470.872 325.657 470.32 324.764 469.393C323.87 468.467 323.393 467.239 323.434 465.975C323.474 464.711 324.03 463.511 324.982 462.632C325.465 462.187 326.035 461.837 326.66 461.605C327.284 461.373 327.95 461.263 328.619 461.28C329.287 461.298 329.945 461.443 330.553 461.707C331.162 461.972 331.709 462.35 332.162 462.82C332.615 463.291 332.966 463.843 333.194 464.446C333.422 465.049 333.522 465.689 333.489 466.33C333.455 466.971 333.289 467.6 333 468.18C332.71 468.76 332.304 469.279 331.803 469.706Z" fill="#7B95B7"/>
<path d="M353.624 492.186C352.888 492.821 351.975 493.234 350.998 493.374C350.021 493.515 349.024 493.377 348.13 492.977C347.236 492.577 346.486 491.934 345.972 491.126C345.459 490.319 345.204 489.384 345.241 488.437C345.278 487.49 345.604 486.573 346.179 485.801C346.754 485.029 347.553 484.435 348.475 484.094C349.398 483.753 350.403 483.68 351.367 483.883C352.33 484.086 353.209 484.557 353.894 485.237C354.363 485.703 354.73 486.255 354.971 486.861C355.212 487.466 355.323 488.113 355.298 488.761C355.273 489.41 355.112 490.048 354.824 490.636C354.536 491.225 354.128 491.752 353.624 492.186Z" fill="#7B95B7"/>
<path d="M375.327 514.718C374.596 515.368 373.682 515.796 372.699 515.949C371.717 516.101 370.711 515.971 369.807 515.574C368.904 515.178 368.144 514.533 367.625 513.721C367.105 512.909 366.848 511.967 366.886 511.013C366.924 510.059 367.257 509.137 367.84 508.362C368.424 507.587 369.234 506.995 370.166 506.66C371.099 506.325 372.113 506.263 373.081 506.481C374.048 506.699 374.926 507.187 375.602 507.884C376.053 508.348 376.403 508.893 376.633 509.488C376.863 510.083 376.968 510.716 376.942 511.351C376.917 511.986 376.761 512.61 376.484 513.188C376.207 513.765 375.813 514.286 375.327 514.718Z" fill="#7B95B7"/>
<path d="M397.025 537.134C396.289 537.768 395.375 538.182 394.398 538.322C393.421 538.463 392.424 538.325 391.53 537.925C390.637 537.525 389.886 536.881 389.373 536.074C388.859 535.267 388.605 534.331 388.642 533.385C388.678 532.438 389.005 531.521 389.58 530.749C390.155 529.977 390.953 529.383 391.876 529.042C392.798 528.701 393.804 528.627 394.767 528.831C395.731 529.034 396.61 529.505 397.295 530.185C397.764 530.651 398.13 531.203 398.371 531.809C398.612 532.414 398.724 533.061 398.698 533.709C398.673 534.358 398.512 534.996 398.224 535.584C397.937 536.173 397.529 536.7 397.025 537.134Z" fill="#7B95B7"/>
<path d="M418.724 559.596C417.986 560.228 417.072 560.638 416.094 560.775C415.117 560.913 414.12 560.771 413.228 560.368C412.336 559.966 411.588 559.32 411.077 558.511C410.567 557.702 410.316 556.766 410.356 555.819C410.396 554.873 410.725 553.957 411.303 553.187C411.88 552.416 412.681 551.825 413.604 551.487C414.527 551.149 415.533 551.078 416.496 551.285C417.459 551.491 418.336 551.964 419.019 552.646C419.49 553.112 419.857 553.665 420.098 554.272C420.339 554.879 420.449 555.526 420.422 556.176C420.394 556.826 420.23 557.464 419.938 558.052C419.646 558.64 419.233 559.165 418.724 559.596Z" fill="#7B95B7"/>
<path opacity="0.2" d="M817.013 106.794C750.299 114.379 636.131 158.385 518.271 255.557C431.172 327.338 370.695 448.88 342.861 513.592L304.134 473.501C304.134 473.501 348.895 341.579 464.724 249.168C522.618 203.057 591.245 167.43 653.24 143.127C729.773 112.931 795.66 100.295 817.013 106.794Z" fill="#B2BCC9"/>
<path d="M363.25 598.317L280.719 512.857L309.869 479.444L400.155 572.931L363.25 598.317Z" fill="#2162B5"/>
<path opacity="0.1" d="M400.155 572.931L382.17 585.291L298.722 492.217L309.87 479.467L400.155 572.931Z" fill="black"/>
<path d="M774.555 281.394L738.54 280.679L723.11 314.247L723.028 277.621L689.719 264.577L726.008 263.314L741.14 231.725L741.812 266.428L774.555 281.394Z" fill="#F1F1F1"/>
<path d="M760.081 154.505L739.94 154.126L731.325 172.893L731.283 152.406L712.667 145.115L732.953 144.4L741.401 126.752L741.779 146.159L760.081 154.505Z" fill="#F1F1F1"/>
<path d="M615.025 552.946L594.907 552.543L586.291 571.309L586.227 550.847L567.611 543.556L587.896 542.841L596.368 525.192L596.723 544.6L615.025 552.946Z" fill="#F1F1F1"/>
<path d="M250.222 398.588L230.079 398.186L221.464 416.952L221.424 396.489L202.807 389.198L223.093 388.483L231.541 370.835L231.919 390.219L250.222 398.588Z" fill="#F1F1F1"/>
<path opacity="0.6" d="M345.098 579.235C309.701 604.416 278.875 635.914 256.993 672.89C234.506 710.074 222.744 752.305 222.918 795.227C223.304 816.971 227.03 838.529 233.975 859.207C241.112 880.266 251.38 900.216 264.464 918.44C277.857 936.987 293.676 953.802 311.537 968.475C329.714 983.39 349.452 996.462 370.436 1007.49C347.944 998.79 326.46 987.879 306.328 974.926C285.951 961.756 267.437 946.116 251.24 928.393C217.669 891.718 196.184 846.298 189.485 797.843C182.781 748.862 191.366 697.908 211.786 651.887C232.207 605.865 263.94 564.382 302.083 529.946L345.098 579.235Z" fill="#2162B5"/>
<path d="M285.153 635.613L270.929 638.787L268.373 653.423L264.531 639.071L250.081 637.146L264.221 633.165L266.861 619.335L270.739 632.876L285.153 635.613Z" fill="#B2BCC9"/>
<path d="M244.446 909.431L236.5 911.218L235.079 919.397L232.916 911.377L224.842 910.301L232.745 908.077L234.234 900.357L236.402 907.915L244.446 909.431Z" fill="#B2BCC9"/>
<path d="M237.021 839.301L229.073 841.064L227.653 849.267L225.513 841.222L217.417 840.17L225.32 837.947L226.808 830.203L228.976 837.784L237.021 839.301Z" fill="#B2BCC9"/>
<path d="M272.563 590.87L264.616 592.657L263.171 600.838L261.032 592.816L252.958 591.74L260.862 589.517L262.327 581.797L264.494 589.355L272.563 590.87Z" fill="#B2BCC9"/>
<path d="M264.179 926.13C263.675 926.286 263.238 926.596 262.935 927.013C262.633 927.429 262.481 927.93 262.503 928.436C262.526 928.943 262.721 929.428 263.06 929.816C263.398 930.204 263.861 930.474 264.376 930.585C264.88 930.429 265.317 930.119 265.62 929.702C265.923 929.286 266.075 928.785 266.052 928.279C266.03 927.772 265.834 927.287 265.496 926.899C265.157 926.511 264.694 926.241 264.179 926.13Z" fill="#B2BCC9"/>
<path d="M315.162 578.112C314.659 578.267 314.222 578.577 313.919 578.994C313.616 579.411 313.464 579.911 313.487 580.418C313.509 580.924 313.705 581.409 314.043 581.798C314.382 582.186 314.844 582.456 315.36 582.566C315.864 582.411 316.301 582.101 316.603 581.684C316.906 581.267 317.058 580.767 317.036 580.26C317.013 579.754 316.818 579.269 316.479 578.881C316.14 578.492 315.678 578.222 315.162 578.112Z" fill="#B2BCC9"/>
<path d="M198.946 782.393C198.443 782.548 198.006 782.858 197.703 783.275C197.4 783.692 197.248 784.192 197.271 784.698C197.293 785.205 197.489 785.69 197.827 786.078C198.166 786.466 198.629 786.737 199.144 786.847C199.648 786.691 200.085 786.381 200.388 785.965C200.69 785.548 200.842 785.048 200.82 784.541C200.797 784.034 200.602 783.55 200.263 783.161C199.925 782.773 199.462 782.503 198.946 782.393Z" fill="#B2BCC9"/>
<path d="M259.526 914.705C259.126 914.77 258.763 914.973 258.507 915.276C258.251 915.579 258.119 915.962 258.136 916.351C258.153 916.74 258.319 917.109 258.601 917.389C258.883 917.668 259.262 917.838 259.666 917.867C260.067 917.802 260.43 917.599 260.686 917.296C260.942 916.993 261.074 916.611 261.057 916.221C261.039 915.832 260.874 915.463 260.592 915.184C260.31 914.904 259.931 914.734 259.526 914.705Z" fill="#B2BCC9"/>
<path d="M194.649 704.561C194.216 704.581 193.807 704.764 193.513 705.072C193.219 705.38 193.065 705.787 193.083 706.203C193.102 706.619 193.292 707.011 193.612 707.292C193.931 707.572 194.355 707.719 194.789 707.7C195.222 707.681 195.631 707.497 195.925 707.189C196.219 706.881 196.373 706.474 196.355 706.058C196.336 705.642 196.146 705.25 195.826 704.97C195.507 704.689 195.083 704.542 194.649 704.561Z" fill="#B2BCC9"/>
<path d="M218.52 865.05C217.397 865.179 216.365 865.711 215.631 866.54C214.897 867.368 214.516 868.431 214.564 869.515C214.612 870.599 215.086 871.624 215.89 872.384C216.694 873.144 217.77 873.582 218.9 873.612C220.023 873.483 221.056 872.95 221.789 872.122C222.523 871.294 222.905 870.231 222.856 869.147C222.808 868.063 222.335 867.038 221.53 866.278C220.726 865.518 219.651 865.079 218.52 865.05Z" fill="#B2BCC9"/>
<path d="M215.03 689.135C213.85 689.187 212.738 689.687 211.939 690.525C211.14 691.363 210.719 692.47 210.77 693.602C210.82 694.735 211.337 695.8 212.207 696.563C213.077 697.327 214.229 697.727 215.409 697.674C216.589 697.622 217.701 697.122 218.5 696.284C219.299 695.446 219.72 694.34 219.67 693.207C219.619 692.075 219.102 691.01 218.232 690.246C217.362 689.482 216.21 689.083 215.03 689.135Z" fill="#B2BCC9"/>
<path opacity="0.5" d="M633.215 328.555C624.46 328.555 615.901 325.958 608.622 321.093C601.343 316.228 595.67 309.314 592.321 301.224C588.972 293.135 588.098 284.234 589.808 275.648C591.518 267.061 595.737 259.175 601.93 252.986C608.124 246.798 616.013 242.585 624.601 240.881C633.189 239.177 642.089 240.058 650.176 243.413C658.263 246.768 665.173 252.446 670.032 259.729C674.892 267.012 677.482 275.573 677.475 284.328C677.457 296.058 672.788 307.302 664.49 315.593C656.193 323.884 644.945 328.546 633.215 328.555ZM633.215 242.345C624.907 242.351 616.788 244.823 609.886 249.446C602.983 254.069 597.607 260.636 594.439 268.316C591.27 275.996 590.451 284.443 592.086 292.588C593.721 300.734 597.735 308.211 603.621 314.074C609.508 319.937 617.001 323.921 625.153 325.523C633.305 327.125 641.749 326.273 649.416 323.074C657.083 319.875 663.628 314.473 668.224 307.552C672.82 300.631 675.258 292.502 675.232 284.194C675.223 273.056 670.792 262.378 662.914 254.505C655.035 246.633 644.353 242.211 633.215 242.211V242.345Z" fill="#BA68C8"/>
<path d="M645.871 284.194C645.871 286.697 645.128 289.144 643.738 291.225C642.347 293.306 640.371 294.928 638.058 295.886C635.746 296.844 633.201 297.095 630.746 296.606C628.292 296.118 626.037 294.913 624.267 293.143C622.497 291.373 621.292 289.118 620.803 286.663C620.315 284.208 620.566 281.664 621.523 279.351C622.481 277.039 624.103 275.062 626.184 273.672C628.266 272.281 630.712 271.539 633.215 271.539C634.878 271.534 636.526 271.859 638.064 272.493C639.601 273.128 640.998 274.06 642.174 275.236C643.35 276.412 644.282 277.809 644.916 279.346C645.551 280.883 645.875 282.531 645.871 284.194Z" fill="white"/>
<path d="M737.069 794.256C737.573 794.762 737.916 795.406 738.055 796.107C738.193 796.808 738.121 797.535 737.847 798.195C737.573 798.855 737.109 799.418 736.515 799.815C735.921 800.212 735.222 800.424 734.507 800.424C733.793 800.424 733.094 800.212 732.5 799.815C731.906 799.418 731.442 798.855 731.168 798.195C730.894 797.535 730.822 796.808 730.96 796.107C731.099 795.406 731.442 794.762 731.946 794.256C732.629 793.583 733.549 793.206 734.507 793.206C735.466 793.206 736.386 793.583 737.069 794.256Z" fill="#FAFAFA"/>
<path d="M770.481 810.092C771.044 810.625 771.495 811.266 771.809 811.975C772.122 812.685 772.291 813.449 772.307 814.225C772.323 815 772.184 815.771 771.899 816.493C771.615 817.214 771.19 817.872 770.649 818.428C769.841 819.268 768.803 819.849 767.665 820.099C766.526 820.349 765.34 820.255 764.255 819.831C763.17 819.406 762.235 818.67 761.569 817.714C760.902 816.758 760.534 815.627 760.51 814.462C760.487 813.297 760.81 812.151 761.437 811.17C762.065 810.188 762.969 809.414 764.036 808.947C765.103 808.479 766.285 808.338 767.432 808.542C768.58 808.746 769.641 809.285 770.481 810.092Z" fill="#FAFAFA"/>
<g opacity="0.5">
<path d="M870.586 376.832C871.249 376.567 871.976 376.505 872.674 376.653C873.373 376.8 874.012 377.152 874.511 377.662C875.011 378.173 875.348 378.82 875.48 379.522C875.612 380.224 875.533 380.949 875.253 381.606C874.974 382.263 874.506 382.823 873.908 383.214C873.311 383.606 872.611 383.812 871.897 383.806C871.183 383.8 870.487 383.583 869.896 383.182C869.305 382.781 868.846 382.214 868.577 381.553C868.223 380.66 868.236 379.664 868.612 378.78C868.988 377.896 869.697 377.196 870.586 376.832Z" fill="#FAFAFA"/>
<path d="M898.675 352.794C899.765 352.367 900.958 352.272 902.102 352.522C903.246 352.772 904.29 353.356 905.103 354.199C905.916 355.042 906.46 356.107 906.668 357.26C906.876 358.412 906.738 359.6 906.271 360.674C905.804 361.748 905.029 362.66 904.045 363.294C903.06 363.928 901.91 364.256 900.739 364.237C899.568 364.217 898.429 363.852 897.466 363.185C896.503 362.519 895.758 361.583 895.327 360.494C894.756 359.029 894.787 357.397 895.415 355.954C896.042 354.512 897.214 353.376 898.675 352.794Z" fill="#FAFAFA"/>
</g>
<path d="M463.574 96.7753C463.574 97.4905 463.362 98.1896 462.965 98.7842C462.567 99.3788 462.002 99.8422 461.342 100.116C460.681 100.39 459.954 100.461 459.253 100.322C458.551 100.182 457.907 99.8378 457.401 99.3321C456.896 98.8264 456.551 98.1821 456.412 97.4807C456.272 96.7793 456.344 96.0523 456.618 95.3916C456.891 94.7309 457.355 94.1662 457.949 93.7689C458.544 93.3716 459.243 93.1595 459.958 93.1595C460.917 93.1595 461.837 93.5405 462.515 94.2186C463.193 94.8967 463.574 95.8164 463.574 96.7753Z" fill="#FAFAFA"/>
<path d="M480.615 49.3348L488.784 57.4034L500.033 55.2272C500.273 55.1819 500.521 55.2048 500.748 55.2931C500.976 55.3814 501.174 55.5316 501.32 55.7268C501.466 55.922 501.555 56.1543 501.576 56.3974C501.597 56.6405 501.55 56.8846 501.439 57.1021L496.317 67.4138L501.841 77.4577C501.965 77.6715 502.025 77.916 502.015 78.1628C502.005 78.4096 501.925 78.6485 501.785 78.8518C501.645 79.0551 501.45 79.2145 501.223 79.3114C500.996 79.4084 500.746 79.4389 500.502 79.3995L489.186 77.692L481.318 86.0619C481.15 86.2407 480.935 86.3686 480.698 86.4308C480.46 86.493 480.21 86.4871 479.976 86.4137C479.742 86.3403 479.533 86.2024 479.374 86.0159C479.215 85.8293 479.111 85.6016 479.075 85.3588L477.2 74.0427L466.822 69.1882C466.603 69.0806 466.418 68.9137 466.289 68.7066C466.16 68.4995 466.092 68.2604 466.092 68.0164C466.092 67.7724 466.16 67.5333 466.289 67.3262C466.418 67.1191 466.603 66.9523 466.822 66.8446L476.865 61.5548L478.305 50.1718C478.304 49.903 478.387 49.6407 478.541 49.4205C478.695 49.2003 478.913 49.033 479.166 48.9415C479.419 48.8499 479.693 48.8386 479.953 48.909C480.212 48.9794 480.443 49.1281 480.615 49.3348Z" fill="#FAFAFA"/>
<path d="M196.474 571.985L197.746 580.79L205.681 584.707C205.851 584.789 205.994 584.917 206.094 585.077C206.194 585.237 206.247 585.422 206.247 585.611C206.247 585.799 206.194 585.984 206.094 586.144C205.994 586.304 205.851 586.432 205.681 586.515L197.746 590.432L196.44 599.237C196.41 599.42 196.329 599.59 196.207 599.73C196.085 599.869 195.927 599.972 195.751 600.028C195.574 600.083 195.386 600.089 195.206 600.044C195.026 599.999 194.863 599.905 194.733 599.773L188.539 593.411L179.801 594.918C179.613 594.955 179.419 594.937 179.241 594.867C179.063 594.797 178.908 594.678 178.796 594.523C178.683 594.368 178.617 594.185 178.605 593.994C178.594 593.803 178.637 593.612 178.73 593.445L182.848 585.611L178.73 577.743C178.662 577.582 178.636 577.405 178.654 577.231C178.673 577.057 178.735 576.89 178.835 576.746C178.935 576.603 179.07 576.487 179.228 576.409C179.385 576.332 179.559 576.295 179.734 576.303L188.472 577.81L194.666 571.482C194.795 571.334 194.963 571.225 195.151 571.168C195.339 571.111 195.54 571.109 195.729 571.161C195.918 571.214 196.089 571.319 196.221 571.465C196.353 571.611 196.44 571.791 196.474 571.985Z" fill="#FAFAFA"/>
<path d="M453.831 938.887C454.592 939.331 455.204 939.99 455.589 940.782C455.975 941.573 456.118 942.461 455.999 943.333C455.881 944.206 455.506 945.023 454.923 945.683C454.34 946.343 453.574 946.814 452.723 947.039C451.871 947.263 450.973 947.231 450.14 946.944C449.307 946.658 448.578 946.132 448.045 945.431C447.511 944.731 447.197 943.888 447.143 943.009C447.088 942.131 447.295 941.256 447.738 940.495C448.029 939.985 448.419 939.539 448.884 939.182C449.349 938.825 449.881 938.564 450.448 938.414C451.015 938.265 451.606 938.229 452.187 938.311C452.768 938.392 453.327 938.588 453.831 938.887Z" fill="#F0F0F0"/>
<path d="M464.88 924.19C465.477 924.534 465.915 925.099 466.097 925.764C466.278 926.429 466.19 927.139 465.851 927.739C465.681 928.035 465.454 928.295 465.183 928.503C464.912 928.71 464.603 928.862 464.273 928.95C463.942 929.037 463.598 929.057 463.26 929.011C462.922 928.964 462.596 928.85 462.302 928.676C462.007 928.507 461.749 928.281 461.542 928.012C461.334 927.743 461.182 927.436 461.093 927.108C461.005 926.78 460.982 926.438 461.025 926.101C461.069 925.764 461.179 925.439 461.348 925.144C461.517 924.849 461.743 924.591 462.012 924.384C462.281 924.176 462.588 924.024 462.916 923.935C463.244 923.847 463.587 923.824 463.923 923.867C464.26 923.911 464.585 924.021 464.88 924.19Z" fill="#FAFAFA"/>
<path d="M594.379 1005.41L585.976 1008.32L583.632 1016.86C583.582 1017.04 583.483 1017.21 583.344 1017.33C583.206 1017.46 583.034 1017.55 582.849 1017.58C582.664 1017.62 582.473 1017.6 582.298 1017.53C582.123 1017.46 581.97 1017.35 581.858 1017.2L576.501 1010.13L567.629 1010.53C567.437 1010.55 567.245 1010.5 567.076 1010.41C566.907 1010.32 566.769 1010.18 566.677 1010.01C566.585 1009.84 566.544 1009.65 566.558 1009.46C566.573 1009.26 566.642 1009.08 566.758 1008.93L571.814 1001.66L568.7 993.359C568.627 993.181 568.606 992.987 568.64 992.798C568.673 992.609 568.761 992.434 568.891 992.293C569.021 992.152 569.189 992.051 569.375 992.003C569.561 991.954 569.756 991.96 569.939 992.02L578.443 994.597L585.373 989.073C585.52 988.953 585.697 988.877 585.885 988.854C586.073 988.831 586.264 988.861 586.436 988.941C586.607 989.022 586.753 989.149 586.855 989.309C586.957 989.469 587.012 989.654 587.013 989.843V998.716L594.412 1003.6C594.581 1003.69 594.722 1003.82 594.819 1003.98C594.916 1004.14 594.966 1004.33 594.963 1004.52C594.959 1004.71 594.902 1004.89 594.799 1005.05C594.696 1005.21 594.55 1005.33 594.379 1005.41Z" fill="#FAFAFA"/>
<path d="M594.379 1005.41L585.976 1008.32L583.632 1016.86C583.582 1017.04 583.483 1017.21 583.344 1017.33C583.206 1017.46 583.034 1017.55 582.849 1017.58C582.664 1017.62 582.473 1017.6 582.298 1017.53C582.123 1017.46 581.97 1017.35 581.858 1017.2L576.501 1010.13L567.629 1010.53C567.437 1010.55 567.245 1010.5 567.076 1010.41C566.907 1010.32 566.769 1010.18 566.677 1010.01C566.585 1009.84 566.544 1009.65 566.558 1009.46C566.573 1009.26 566.642 1009.08 566.758 1008.93L571.814 1001.66L568.7 993.359C568.627 993.181 568.606 992.987 568.64 992.798C568.673 992.609 568.761 992.434 568.891 992.293C569.021 992.152 569.189 992.051 569.375 992.003C569.561 991.954 569.756 991.96 569.939 992.02L578.443 994.597L585.373 989.073C585.52 988.953 585.697 988.877 585.885 988.854C586.073 988.831 586.264 988.861 586.436 988.941C586.607 989.022 586.753 989.149 586.855 989.309C586.957 989.469 587.012 989.654 587.013 989.843V998.716L594.412 1003.6C594.581 1003.69 594.722 1003.82 594.819 1003.98C594.916 1004.14 594.966 1004.33 594.963 1004.52C594.959 1004.71 594.902 1004.89 594.799 1005.05C594.696 1005.21 594.55 1005.33 594.379 1005.41Z" fill="#FAFAFA"/>
<g filter="url(#filter0_d_307_624)">
<path d="M94.435 460.125V477.235H44.265C39.8183 477.235 36.58 478.347 34.55 480.57C32.52 482.697 31.505 485.452 31.505 488.835C31.505 490.285 31.6983 491.735 32.085 493.185C32.5683 494.538 33.3417 495.795 34.405 496.955C35.565 498.018 37.0633 498.888 38.9 499.565C40.7367 500.145 43.105 500.435 46.005 500.435H68.915C75.585 500.435 81.0467 501.305 85.3 503.045C89.5533 504.688 92.8883 506.863 95.305 509.57C97.8183 512.277 99.51 515.37 100.38 518.85C101.347 522.33 101.83 525.81 101.83 529.29C101.83 533.447 101.25 537.265 100.09 540.745C98.93 544.225 97.0933 547.27 94.58 549.88C92.0667 552.393 88.8283 554.375 84.865 555.825C80.9983 557.275 76.2617 558 70.655 558H16.135V540.89H71.235C75.875 540.89 79.2583 539.778 81.385 537.555C83.6083 535.235 84.72 532.287 84.72 528.71C84.72 527.163 84.4783 525.665 83.995 524.215C83.5117 522.668 82.69 521.363 81.53 520.3C80.37 519.14 78.775 518.222 76.745 517.545C74.8117 516.868 72.3467 516.53 69.35 516.53H46.585C40.0117 516.53 34.6467 515.708 30.49 514.065C26.3333 512.422 23.0467 510.247 20.63 507.54C18.31 504.833 16.6667 501.788 15.7 498.405C14.83 495.022 14.395 491.638 14.395 488.255C14.395 484.195 14.9267 480.473 15.99 477.09C17.15 473.61 18.9383 470.613 21.355 468.1C23.8683 465.587 27.0583 463.653 30.925 462.3C34.7917 460.85 39.4317 460.125 44.845 460.125H94.435ZM183.153 460.125V477.235H154.588V558H137.333V477.235H108.768V460.125H183.153ZM277.445 460.125V477.235H228.435C223.215 477.235 219.445 478.347 217.125 480.57C214.805 482.793 213.645 485.79 213.645 489.56C213.645 497.293 218.624 501.16 228.58 501.16H276.72V516.675H228.145C218.189 516.675 213.21 520.638 213.21 528.565C213.21 532.432 214.419 535.477 216.835 537.7C219.252 539.827 222.974 540.89 228 540.89H277.59V558H228C222.2 558 217.222 557.323 213.065 555.97C209.005 554.617 205.622 552.78 202.915 550.46C200.305 548.043 198.372 545.192 197.115 541.905C195.955 538.618 195.375 535.09 195.375 531.32C195.375 525.713 196.584 521.073 199 517.4C201.417 513.63 204.897 510.778 209.44 508.845C200.257 505.075 195.665 497.728 195.665 486.805C195.665 482.938 196.294 479.362 197.55 476.075C198.807 472.788 200.74 469.985 203.35 467.665C206.057 465.248 209.44 463.412 213.5 462.155C217.657 460.802 222.635 460.125 228.435 460.125H277.445ZM315.923 460.125V524.07C315.923 526.39 316.213 528.613 316.793 530.74C317.469 532.77 318.581 534.558 320.128 536.105C321.674 537.555 323.704 538.715 326.217 539.585C328.828 540.455 332.066 540.89 335.933 540.89H373.923V558H334.918C328.441 558 322.883 557.178 318.243 555.535C313.699 553.795 309.978 551.427 307.077 548.43C304.178 545.433 302.051 541.905 300.698 537.845C299.441 533.688 298.813 529.145 298.813 524.215V460.125H315.923ZM403.574 460.125V524.07C403.574 526.39 403.864 528.613 404.444 530.74C405.121 532.77 406.232 534.558 407.779 536.105C409.326 537.555 411.356 538.715 413.869 539.585C416.479 540.455 419.717 540.89 423.584 540.89H461.574V558H422.569C416.092 558 410.534 557.178 405.894 555.535C401.351 553.795 397.629 551.427 394.729 548.43C391.829 545.433 389.702 541.905 388.349 537.845C387.092 533.688 386.464 529.145 386.464 524.215V460.125H403.574ZM487.394 558H468.544L502.909 471C504.746 466.36 507.307 463.122 510.594 461.285C513.977 459.352 518.279 458.385 523.499 458.385C528.622 458.385 532.827 459.352 536.114 461.285C539.497 463.122 542.059 466.36 543.799 471L576.859 558H557.864L528.139 479.265C527.269 477.042 525.674 475.93 523.354 475.93C521.034 475.93 519.391 477.042 518.424 479.265L487.394 558ZM644.165 460.125C649.675 460.125 654.412 460.947 658.375 462.59C662.338 464.137 665.577 466.263 668.09 468.97C670.7 471.58 672.585 474.673 673.745 478.25C675.002 481.827 675.63 485.548 675.63 489.415C675.63 492.508 675.243 495.602 674.47 498.695C673.697 501.692 672.488 504.543 670.845 507.25C669.202 509.86 667.075 512.18 664.465 514.21C661.855 516.24 658.665 517.787 654.895 518.85L677.66 558H658.665L636.335 520.155H610.815C609.172 520.155 608.35 520.977 608.35 522.62V558H591.24V519.285C591.24 513.775 592.448 509.812 594.865 507.395C597.282 504.978 601.197 503.77 606.61 503.77H644.745C647.162 503.77 649.24 503.383 650.98 502.61C652.72 501.837 654.122 500.822 655.185 499.565C656.248 498.308 657.022 496.858 657.505 495.215C658.085 493.572 658.375 491.88 658.375 490.14C658.375 486.66 657.263 483.663 655.04 481.15C652.913 478.54 649.482 477.235 644.745 477.235H591.095V460.125H644.165ZM712.006 460.125V558H694.896V460.125H712.006ZM752.352 460.125V525.52C752.352 530.45 753.609 534.268 756.122 536.975C758.732 539.585 762.889 540.89 768.592 540.89H785.992C791.502 540.89 795.562 539.585 798.172 536.975C800.782 534.268 802.087 530.45 802.087 525.52V460.125H818.907V526.825C818.907 537.168 816.249 544.95 810.932 550.17C805.615 555.39 797.689 558 787.152 558H766.562C745.489 558 734.952 547.608 734.952 526.825V460.125H752.352ZM845.208 558H826.938L857.243 476.51C859.176 470.903 861.834 466.505 865.218 463.315C868.698 460.028 873.724 458.385 880.298 458.385C887.548 458.385 892.961 460.367 896.538 464.33C900.211 468.197 902.048 473.32 902.048 479.7V537.555C902.048 539.198 902.483 540.552 903.353 541.615C904.319 542.582 905.528 543.065 906.978 543.065C909.684 543.065 911.521 541.712 912.488 539.005L936.268 476.51C938.201 470.903 940.859 466.505 944.243 463.315C947.723 460.028 952.749 458.385 959.323 458.385C966.573 458.385 971.986 460.367 975.563 464.33C979.236 468.197 981.073 473.32 981.073 479.7V558H963.818V480.57C963.818 478.83 963.334 477.477 962.368 476.51C961.498 475.447 960.338 474.915 958.888 474.915C957.631 474.915 956.519 475.302 955.553 476.075C954.683 476.848 954.006 477.863 953.523 479.12L929.743 541.615C927.809 547.222 925.103 551.668 921.623 554.955C918.143 558.145 913.116 559.74 906.543 559.74C899.293 559.74 893.879 557.807 890.303 553.94C886.726 549.977 884.938 544.757 884.938 538.28V480.57C884.938 478.83 884.454 477.477 883.488 476.51C882.521 475.447 881.313 474.915 879.863 474.915C878.509 474.915 877.398 475.302 876.528 476.075C875.658 476.848 874.981 477.863 874.498 479.12L845.208 558Z" fill="white"/>
</g>
<defs>
<filter id="filter0_d_307_624" x="8.69502" y="456.685" width="978.078" height="112.755" filterUnits="userSpaceOnUse" color-interpolation-filters="sRGB">
<feFlood flood-opacity="0" result="BackgroundImageFix"/>
<feColorMatrix in="SourceAlpha" type="matrix" values="0 0 0 0 0 0 0 0 0 0 0 0 0 0 0 0 0 0 127 0" result="hardAlpha"/>
<feOffset dy="4"/>
<feGaussianBlur stdDeviation="2.85"/>
<feComposite in2="hardAlpha" operator="out"/>
<feColorMatrix type="matrix" values="0 0 0 0 0 0 0 0 0 0 0 0 0 0 0 0 0 0 0.75 0"/>
<feBlend mode="normal" in2="BackgroundImageFix" result="effect1_dropShadow_307_624"/>
<feBlend mode="normal" in="SourceGraphic" in2="effect1_dropShadow_307_624" result="shape"/>
</filter>
</defs>
</svg>
