<svg width="80" height="80" viewBox="0 0 80 80" fill="none" xmlns="http://www.w3.org/2000/svg">
<path d="M32.0215 8.0008C25.652 8.0008 19.5434 10.5311 15.0395 15.035C10.5356 19.5389 8.00538 25.6475 8.00538 32.0169C8.00538 38.3864 10.5356 44.495 15.0395 48.9989C19.5434 53.5028 25.652 56.0331 32.0215 56.0331C38.391 56.0331 44.4996 53.5028 49.0035 48.9989C53.5074 44.495 56.0376 38.3864 56.0376 32.0169C56.0376 25.6475 53.5074 19.5389 49.0035 15.035C44.4996 10.5311 38.391 8.0008 32.0215 8.0008ZM1.97798e-07 32.0169C0.000729795 26.9209 1.21769 21.8987 3.54974 17.3677C5.88179 12.8366 9.26158 8.92753 13.4082 5.96537C17.5549 3.0032 22.3486 1.07348 27.391 0.336571C32.4334 -0.400337 37.5789 0.0768549 42.3998 1.72849C47.2207 3.38012 51.5778 6.15849 55.109 9.8327C58.6402 13.5069 61.2435 17.9708 62.7025 22.8535C64.1615 27.7361 64.4342 32.8965 63.4977 37.9057C62.5613 42.9149 60.4429 47.6283 57.3185 51.6541L78.881 73.2166C79.6101 73.9715 80.0136 74.9826 80.0044 76.0321C79.9953 77.0816 79.5744 78.0855 78.8322 78.8276C78.0901 79.5698 77.0862 79.9907 76.0367 79.9998C74.9872 80.009 73.9761 79.6055 73.2212 78.8764L51.6587 57.3139C46.9253 60.9888 41.2558 63.2617 35.2948 63.8742C29.3337 64.4868 23.3204 63.4144 17.9386 60.779C12.5568 58.1435 8.02255 54.0508 4.85136 48.9663C1.68016 43.8817 -0.000665729 38.0093 1.97798e-07 32.0169Z" fill="white"/>
</svg>
